# xmcd
#
# Track frame offsets:
#	151
#	15440
#	40233
#	57120
#	81875
#	100565
#	118068
#	139413
#	155388
#	171156
#	189570
#	209753
#	224713
#	243840
#	264438
#	280180
#	298155
#	317288
#	318700
#	322477
#	337118
#
# Disc length: 4751 seconds
#
# Revision: 0
# Processed by: cddbd v1.5.1PL0 Copyright (c) Steve Scherf et al.
# Submitted via: dBpowerAMP V4.0
#
DISCID=47128d15
DTITLE=Various Artist - The 80's Love Album-cd 1
DYEAR=1900
DGENRE=Blues
TTITLE0=against all odds
TTITLE1=true
TTITLE2=save a prayer
TTITLE3=the power of love
TTITLE4=more than this
TTITLE5=eternal flame
TTITLE6=hold me now
TTITLE7=kayleigh
TTITLE8=kiss me
TTITLE9=heaven is a place on earth
TTITLE10=waiting for a star to fall
TTITLE11=it must be love
TTITLE12=china girl
TTITLE13=i just died in your arms tonight
TTITLE14=missing you
TTITLE15=is this love
TTITLE16=no more lonley nights
TTITLE17=right hear waiting
TTITLE18=hands to heaven
TTITLE19=unown
TTITLE20=unown
EXTD=THE 80'S LOVE ALBUM
EXTT0=
EXTT1=
EXTT2=
EXTT3=
EXTT4=
EXTT5=
EXTT6=
EXTT7=
EXTT8=
EXTT9=
EXTT10=
EXTT11=
EXTT12=
EXTT13=
EXTT14=
EXTT15=
EXTT16=
EXTT17=
EXTT18=
EXTT19=
EXTT20=
PLAYORDER=
